<svg width="98" height="23" viewBox="0 0 98 23" fill="none" xmlns="http://www.w3.org/2000/svg">
<path d="M0.0610786 1.21H4.58208V13.651C4.58208 15.367 4.92308 16.676 5.60508 17.578C6.30908 18.458 7.38708 18.898 8.83908 18.898C10.2691 18.898 11.3031 18.447 11.9411 17.545C12.5791 16.643 12.8981 15.477 12.8981 14.047V1.21H17.4191V13.717C17.4191 16.621 16.6931 18.788 15.2411 20.218C13.8111 21.648 11.6771 22.363 8.83908 22.363C6.11108 22.363 3.96608 21.648 2.40408 20.218C0.842079 18.788 0.0610786 16.566 0.0610786 13.552V1.21ZM25.6889 1.21L30.0449 8.47L34.4009 1.21H39.5819L32.8829 11.44L39.9119 22H34.5659L29.8139 14.41L25.2599 22H20.1119L26.8769 11.44L20.4089 1.21H25.6889ZM58.2746 0.846999C59.6166 0.846999 60.8046 0.978999 61.8386 1.243C62.8726 1.507 63.7966 1.848 64.6106 2.266L63.5876 5.632C62.6856 5.192 61.8166 4.862 60.9806 4.642C60.1446 4.4 59.3306 4.279 58.5386 4.279C57.4826 4.279 56.6576 4.488 56.0636 4.906C55.4916 5.324 55.2056 5.885 55.2056 6.589C55.2056 7.315 55.4586 7.865 55.9646 8.239C56.4706 8.613 57.2846 8.976 58.4066 9.328L60.3866 9.955C62.0366 10.505 63.3236 11.286 64.2476 12.298C65.1936 13.31 65.6666 14.553 65.6666 16.027C65.6666 16.907 65.5016 17.732 65.1716 18.502C64.8416 19.272 64.3466 19.943 63.6866 20.515C63.0266 21.087 62.2016 21.538 61.2116 21.868C60.2216 22.198 59.0666 22.363 57.7466 22.363C55.2606 22.363 52.9836 21.857 50.9156 20.845L51.9386 17.479C52.8846 17.941 53.8086 18.304 54.7106 18.568C55.6126 18.81 56.5586 18.931 57.5486 18.931C58.7146 18.931 59.5946 18.722 60.1886 18.304C60.7826 17.864 61.0796 17.259 61.0796 16.489C61.0796 16.225 61.0246 15.972 60.9146 15.73C60.8266 15.466 60.6506 15.224 60.3866 15.004C60.1226 14.762 59.7596 14.531 59.2976 14.311C58.8576 14.069 58.2746 13.838 57.5486 13.618L55.7996 13.024C55.0296 12.76 54.3256 12.452 53.6876 12.1C53.0496 11.748 52.4996 11.341 52.0376 10.879C51.5976 10.417 51.2456 9.878 50.9816 9.262C50.7396 8.624 50.6186 7.887 50.6186 7.051C50.6186 6.149 50.7836 5.324 51.1136 4.576C51.4436 3.806 51.9276 3.146 52.5656 2.596C53.2256 2.046 54.0286 1.617 54.9746 1.309C55.9426 1.001 57.0426 0.846999 58.2746 0.846999ZM74.416 1.21V22H69.895V1.21H74.416ZM86.9351 1.21C88.5411 1.21 90.0041 1.419 91.3241 1.837C92.6441 2.255 93.7771 2.882 94.7231 3.718C95.6691 4.554 96.3951 5.599 96.9011 6.853C97.4291 8.085 97.6931 9.526 97.6931 11.176C97.6931 13.068 97.3851 14.696 96.7691 16.06C96.1531 17.402 95.3171 18.524 94.2611 19.426C93.2051 20.306 91.9621 20.955 90.5321 21.373C89.1241 21.791 87.6281 22 86.0441 22H79.6751V1.21H86.9351ZM84.1961 18.502H85.7471C86.6711 18.502 87.5621 18.392 88.4201 18.172C89.3001 17.93 90.0701 17.534 90.7301 16.984C91.3901 16.412 91.9181 15.664 92.3141 14.74C92.7101 13.794 92.9081 12.606 92.9081 11.176C92.9081 9.086 92.3141 7.491 91.1261 6.391C89.9381 5.269 88.3431 4.708 86.3411 4.708H84.1961V18.502Z" fill="url(#paint0_linear_1_2)"/>
<defs>
<linearGradient id="paint0_linear_1_2" x1="-2.25" y1="12" x2="99.6899" y2="9.52379" gradientUnits="userSpaceOnUse">
<stop stop-color="#07E4F2"/>
<stop offset="0.978723" stop-color="#00FF47"/>
</linearGradient>
</defs>
</svg>
